<svg xmlns="http://www.w3.org/2000/svg" width="55" height="42" fill="none" viewBox="0 0 55 42"><path fill="#241D43" fill-rule="evenodd" d="M53.909 4.406 42.897 1.722c-.82-.205-1.322-.147-1.67.098l-5.233 3.557c-.523.383-.204.856.235.982l10.874 2.634c.63.155.954.255 1.478-.09l5.362-3.62c.578-.381.277-.715-.034-.877ZM21.676 41.461 40.58 25.848l-6.76-7.084L45.71 10.84 0 0l18.631 9.269L.775 8.744s17.51 4.074 20.763 5.05c3.252.975 2.024 2.068 1.861 2.247-.165.178-2 1.76-3.416 2.817-1.416 1.058.425 2.337.425 2.337l8.714 5.728-7.446 14.538Z" clip-rule="evenodd"/></svg>